<svg xmlns="http://www.w3.org/2000/svg" viewBox="0 0 512 512"><path d="M379.524 459.034H97.165c-25.591-.018-47.51-18.317-52.083-43.494L17.655 264.828h441.379l-27.366 150.713c-4.581 25.194-26.535 43.511-52.144 43.493z" fill="#bf7341"/><path d="M109.568 459.034h269.956c25.591-.018 47.51-18.317 52.083-43.494l27.427-150.713h-58.121C323.972 375.87 189.625 433.276 109.568 459.034z" fill="#b56d3e"/><path d="M194.207 229.517H88.276V52.966C88.276 23.711 111.987 0 141.241 0c29.255 0 52.966 23.711 52.966 52.966v176.551z" fill="#c96e23"/><path fill="#b5611d" d="M173.225 112.828l-44.137 35.303-11.028-13.786 44.138-35.303z"/><path d="M432.552 229.517H326.621v-17.655c0-29.255 23.711-52.966 52.966-52.966 29.255 0 52.966 23.711 52.966 52.966v17.655z" fill="#c96e23"/><path d="M353.103 185.379h17.655v17.655h-17.655zm44.138 8.828h17.655v17.655h-17.655z" fill="#b5611d"/><path d="M364.738 229.517H249.98l92.53-200.386A50.056 50.056 0 01387.937 0h3.372a50.024 50.024 0 0131.276 10.973c17.894 14.31 23.782 38.947 14.301 59.807l-72.148 158.737z" fill="#d68033"/><path d="M411.325 70.283l-61.792 17.666-4.854-16.976 61.792-17.666zm-71.648 76.025l-5.332-16.834 45.382-14.309 5.332 16.843zm10.062 47.489l-55.774 17.65-5.327-16.833 55.774-17.65z" fill="#c96e23"/><path d="M17.655 229.517h441.379c9.754 0 17.655 7.901 17.655 17.655 0 9.754-7.901 17.655-17.655 17.655H17.655C7.901 264.828 0 256.927 0 247.172c0-9.754 7.901-17.655 17.655-17.655z" fill="#bf7341"/><path d="M414.897 229.517v-17.655c0-97.51-79.042-176.552-176.552-176.552-97.51 0-176.552 79.042-176.552 176.552v17.655h-35.31v-17.655C26.483 94.852 121.335 0 238.345 0c117.01 0 211.862 94.852 211.862 211.862v17.655h-35.31z" fill="#965735"/><path d="M326.621 229.517c-2.436-88.505-40.969-158.897-88.276-158.897s-85.839 70.391-88.276 158.897h176.552z" fill="#f09e3e"/><path d="M240.154 178.891l-45.948 15.316c.009-21.098 13.524-39.821 33.545-46.477l45.903-15.316c.001 21.089-13.496 39.812-33.5 46.477z" fill="#d68033"/><path d="M318.579 167.936a259.235 259.235 0 01-87.102 61.581h95.144a294.38 294.38 0 00-8.042-61.581z" fill="#eb9634"/><path d="M344.276 300.138h52.966v17.655h-52.966zm-88.276 0h52.966v17.655H256zm-88.276 0h52.966v17.655h-52.966zm-88.276 0h52.966v17.655H79.448zm0 52.965h52.966v17.655H79.448zm0 52.966h52.966v17.655H79.448z" fill="#965735"/><path d="M150.069 229.517H44.138v-17.655c0-29.255 23.711-52.966 52.966-52.966 29.255 0 52.966 23.711 52.966 52.966v17.655z" fill="#d68033"/><path d="M150.069 211.862a52.823 52.823 0 00-18.882-40.51 126.66 126.66 0 01-56.444 58.165h75.326v-17.655z" fill="#d97a27"/><path d="M70.621 185.379h17.655v17.655H70.621zm35.31 8.828h17.655v17.655h-17.655z" fill="#c96e23"/><path d="M450.207 273.655H44.138c-4.873 0-8.828-3.955-8.828-8.828S39.265 256 44.138 256h406.069c4.873 0 8.828 3.955 8.828 8.828s-3.955 8.827-8.828 8.827z" fill="#965735"/><path d="M512 379.586c0 14.627-11.855 26.483-26.483 26.483v88.276c0 9.754-7.901 17.655-17.655 17.655H203.034c-9.754 0-17.655-7.901-17.655-17.655v-88.276c-14.627 0-26.483-11.855-26.483-26.483 0-14.627 11.855-26.483 26.483-26.483h300.138c14.628 0 26.483 11.856 26.483 26.483z" fill="#f09e3e"/><path d="M453.526 406.069c-.15.168-.327.309-.477.477-24.311 51.2-67.972 84.93-105.11 105.454h119.923c9.754 0 17.655-7.901 17.655-17.655v-88.276h-31.991z" fill="#f09235"/><path d="M353.103 379.586c0 14.627-11.855 26.483-26.483 26.483v88.276c0 9.754-7.901 17.655-17.655 17.655H203.034c-9.754 0-17.655-7.901-17.655-17.655v-88.276c-14.627 0-26.483-11.855-26.483-26.483 0-14.627 11.855-26.483 26.483-26.483H326.62c14.628 0 26.483 11.856 26.483 26.483z" fill="#f0dbc2"/><path d="M432.552 379.586h17.655v17.655h-17.655zm-44.138 26.483h17.655v17.655h-17.655zm52.965 44.138h17.655v17.655h-17.655zm-88.276 17.655h17.655v17.655h-17.655z" fill="#d68033"/></svg>